<mxfile host="65bd71144e">
    <diagram id="tR20tlEwW13Y1c6e1qtc" name="ページ1">
        <mxGraphModel dx="1883" dy="1375" grid="1" gridSize="10" guides="1" tooltips="1" connect="1" arrows="1" fold="1" page="1" pageScale="1" pageWidth="1654" pageHeight="1169" math="0" shadow="0">
            <root>
                <mxCell id="0"/>
                <mxCell id="1" parent="0"/>
                <mxCell id="2" value="" style="swimlane;startSize=0;dashed=1;" vertex="1" parent="1">
                    <mxGeometry x="120" y="120" width="800" height="920" as="geometry"/>
                </mxCell>
                <mxCell id="8" value="Webブラウザ" style="rounded=1;whiteSpace=wrap;html=1;fontSize=24;" vertex="1" parent="2">
                    <mxGeometry x="80" y="80" width="200" height="120" as="geometry"/>
                </mxCell>
                <mxCell id="35" value="" style="shape=singleArrow;whiteSpace=wrap;html=1;fontSize=24;" vertex="1" parent="2">
                    <mxGeometry x="300" y="110" width="180" height="60" as="geometry"/>
                </mxCell>
                <mxCell id="3" value="" style="swimlane;startSize=0;dashed=1;" vertex="1" parent="1">
                    <mxGeometry x="1280" y="120" width="280" height="920" as="geometry"/>
                </mxCell>
                <mxCell id="4" value="" style="swimlane;startSize=0;dashed=1;" vertex="1" parent="1">
                    <mxGeometry x="950" y="120" width="290" height="920" as="geometry"/>
                </mxCell>
                <mxCell id="5" value="" style="swimlane;startSize=0;dashed=1;" vertex="1" parent="1">
                    <mxGeometry x="520" y="40" width="1080" height="1080" as="geometry"/>
                </mxCell>
                <mxCell id="10" value="Webサーバー" style="rounded=1;whiteSpace=wrap;html=1;fontSize=24;" vertex="1" parent="5">
                    <mxGeometry x="100" y="160" width="200" height="120" as="geometry"/>
                </mxCell>
                <mxCell id="9" value="APサーバー" style="rounded=1;whiteSpace=wrap;html=1;fontSize=24;" vertex="1" parent="5">
                    <mxGeometry x="480" y="160" width="200" height="120" as="geometry"/>
                </mxCell>
                <mxCell id="15" value="DBサーバー" style="rounded=1;whiteSpace=wrap;html=1;fontSize=24;" vertex="1" parent="5">
                    <mxGeometry x="800" y="160" width="200" height="120" as="geometry"/>
                </mxCell>
                <mxCell id="17" value="" style="rounded=1;whiteSpace=wrap;html=1;fontSize=24;" vertex="1" parent="5">
                    <mxGeometry x="460" y="422" width="250" height="245" as="geometry"/>
                </mxCell>
                <mxCell id="18" value="" style="rounded=1;whiteSpace=wrap;html=1;fontSize=24;" vertex="1" parent="5">
                    <mxGeometry x="480" y="440" width="150" height="50" as="geometry"/>
                </mxCell>
                <mxCell id="19" value="View" style="rounded=1;whiteSpace=wrap;html=1;fontSize=24;" vertex="1" parent="5">
                    <mxGeometry x="480" y="600" width="150" height="50" as="geometry"/>
                </mxCell>
                <mxCell id="21" value="データベース" style="shape=cylinder3;whiteSpace=wrap;html=1;boundedLbl=1;backgroundOutline=1;size=15;fontSize=24;" vertex="1" parent="5">
                    <mxGeometry x="810" y="470" width="190" height="150" as="geometry"/>
                </mxCell>
                <mxCell id="20" value="Model" style="rounded=1;whiteSpace=wrap;html=1;fontSize=24;" vertex="1" parent="5">
                    <mxGeometry x="670" y="520" width="150" height="50" as="geometry"/>
                </mxCell>
                <mxCell id="22" value="Controller" style="text;html=1;align=center;verticalAlign=middle;resizable=0;points=[];autosize=1;strokeColor=none;fillColor=none;fontSize=24;" vertex="1" parent="5">
                    <mxGeometry x="490" y="445" width="130" height="40" as="geometry"/>
                </mxCell>
                <mxCell id="29" value="" style="shape=doubleArrow;direction=south;whiteSpace=wrap;html=1;fontSize=24;" vertex="1" parent="5">
                    <mxGeometry x="532.5" y="504.5" width="45" height="80" as="geometry"/>
                </mxCell>
                <mxCell id="30" value="" style="shape=flexArrow;endArrow=classic;startArrow=classic;html=1;fontSize=24;" edge="1" parent="5">
                    <mxGeometry width="100" height="100" relative="1" as="geometry">
                        <mxPoint x="640" y="460" as="sourcePoint"/>
                        <mxPoint x="690" y="510.5" as="targetPoint"/>
                    </mxGeometry>
                </mxCell>
                <mxCell id="31" value="" style="shape=flexArrow;endArrow=classic;startArrow=classic;html=1;fontSize=24;" edge="1" parent="5">
                    <mxGeometry width="100" height="100" relative="1" as="geometry">
                        <mxPoint x="690" y="580" as="sourcePoint"/>
                        <mxPoint x="640" y="630.5" as="targetPoint"/>
                    </mxGeometry>
                </mxCell>
                <mxCell id="32" value="プレゼンテーション層" style="text;html=1;align=center;verticalAlign=middle;resizable=0;points=[];autosize=1;strokeColor=none;fillColor=none;fontSize=24;" vertex="1" parent="5">
                    <mxGeometry x="-120" y="940" width="260" height="40" as="geometry"/>
                </mxCell>
                <mxCell id="33" value="アプリケーション層" style="text;html=1;align=center;verticalAlign=middle;resizable=0;points=[];autosize=1;strokeColor=none;fillColor=none;fontSize=24;" vertex="1" parent="5">
                    <mxGeometry x="460" y="940" width="240" height="40" as="geometry"/>
                </mxCell>
                <mxCell id="34" value="データ層" style="text;html=1;align=center;verticalAlign=middle;resizable=0;points=[];autosize=1;strokeColor=none;fillColor=none;fontSize=24;" vertex="1" parent="5">
                    <mxGeometry x="845" y="940" width="120" height="40" as="geometry"/>
                </mxCell>
                <mxCell id="36" value="" style="shape=doubleArrow;whiteSpace=wrap;html=1;fontSize=24;" vertex="1" parent="5">
                    <mxGeometry x="330" y="190" width="150" height="60" as="geometry"/>
                </mxCell>
                <mxCell id="37" value="" style="shape=doubleArrow;whiteSpace=wrap;html=1;fontSize=24;" vertex="1" parent="5">
                    <mxGeometry x="690" y="190" width="100" height="60" as="geometry"/>
                </mxCell>
                <mxCell id="38" value="Webシステム" style="text;html=1;align=center;verticalAlign=middle;resizable=0;points=[];autosize=1;strokeColor=none;fillColor=none;fontSize=24;" vertex="1" parent="5">
                    <mxGeometry x="455" y="1030" width="170" height="40" as="geometry"/>
                </mxCell>
            </root>
        </mxGraphModel>
    </diagram>
</mxfile>